<svg id="Capa_1" data-name="Capa 1" xmlns="http://www.w3.org/2000/svg" viewBox="0 0 388.13 490.47"><defs><style>.cls-1{fill:#fff;}</style></defs><title>placeholder-wab</title><path d="M439.2,194.1c0-109.5-90.7-197.8-201-194A194.09,194.09,0,0,0,54.6,230.9h0s.3,2.1,1.3,6A187.89,187.89,0,0,0,69,275.4c20.1,47.5,67.1,127.7,174.1,214.3a3.31,3.31,0,0,0,4.2,0c107.1-86.6,154-166.8,174.1-214.3a194.1,194.1,0,0,0,13.1-38.5c.9-3.9,1.3-6,1.3-6h0A201.46,201.46,0,0,0,439.2,194.1Z" transform="translate(-51.07 0.02)"/><path class="cls-1" d="M245.1,55.5c-79.3,0-143.8,64.5-143.8,143.8s64.5,143.8,143.8,143.8,143.8-64.5,143.8-143.8S324.4,55.5,245.1,55.5ZM217.8,76.7c-1.5,6.4-2.6,13.7-2.5,17.6.3,6.8,7.9,14,24.4,14.6l.7-4.8c-7.8-.6-11.8-7.1-11.9-10.1-.1-3.3.9-12.6,2.4-19.5a124.66,124.66,0,0,1,28.2,0c1.5,6.9,2.6,16.2,2.4,19.5-.1,3-4.1,9.5-11.9,10.1l.7,4.8c16.5-.6,24.2-7.8,24.4-14.6.1-3.9-.9-11.2-2.5-17.6a125.83,125.83,0,0,1,89.6,76.8l-38,17.6,2.8-20.8a21.47,21.47,0,0,0-21.5-21.5l-54.3-3.3-1.5,17.7,44.6,3.3A18.52,18.52,0,0,1,312.4,165v40a17.82,17.82,0,0,1-4.6,12.1c-10.8-1.8-49.3-10.1-49.3-34.5h-27c0,24.4-38.5,32.6-49.3,34.5a18.71,18.71,0,0,1-4.6-12.1V165a18.52,18.52,0,0,1,18.5-18.5l44.6-3.3-1.5-17.7-54.3,3.3a21.47,21.47,0,0,0-21.5,21.5l2.7,20.2L128,153.4A126.57,126.57,0,0,1,217.8,76.7Zm27.3,248.1c-64.7,0-118.1-49.2-124.9-112.1,17.2,21,48.3,58.8,51.9,62,5,4.4,10,11.2,31.8,11.4h82.7c21.5-.3,26.5-7,31.4-11.4,3.6-3.2,34.7-41,51.9-62A125.6,125.6,0,0,1,245.1,324.8Z" transform="translate(-51.07 0.02)"/><path class="cls-1" d="M193.1,163.6a4,4,0,0,0,4.2,3.8h95.6a3.82,3.82,0,1,0,0-7.6H197.3A4,4,0,0,0,193.1,163.6Z" transform="translate(-51.07 0.02)"/></svg>