<svg id="Layer_1" data-name="Layer 1" xmlns="http://www.w3.org/2000/svg" viewBox="0 0 376.75 376.75"><defs><style>.cls-1{fill:#231f20;}</style></defs><title>beard icon final</title><path class="cls-1" d="M308.57,235.47c-103.87,0-188.37,84.5-188.37,188.38s84.5,188.38,188.37,188.38S497,527.72,497,423.85,412.45,235.47,308.57,235.47Zm-35.76,27.77c-2,8.38-3.42,17.9-3.23,23,.34,8.93,10.37,18.31,32,19.14l.91-6.29c-10.2-.8-15.46-9.31-15.61-13.19-.16-4.34,1.23-16.57,3.21-25.56a160.89,160.89,0,0,1,37,0c2,9,3.37,21.22,3.21,25.56-.15,3.88-5.41,12.4-15.61,13.19l.91,6.29c21.64-.83,31.66-10.21,32-19.14.19-5.12-1.24-14.63-3.23-23a165.15,165.15,0,0,1,117.43,100.6L412,386.93l3.62-27.3a28.17,28.17,0,0,0-28.18-28.18l-71.15-4.33-1.93,23.19,58.38,4.33A24.24,24.24,0,0,1,397,378.89v52.47a24.12,24.12,0,0,1-6,15.91c-14.14-2.42-64.54-13.27-64.54-45.2H291.08c0,31.93-50.4,42.78-64.53,45.2a24.11,24.11,0,0,1-6-15.91V378.89a24.24,24.24,0,0,1,24.24-24.25l58.38-4.33-1.93-23.19-71.16,4.33a28.18,28.18,0,0,0-28.18,28.18l3.5,26.41-50-22.4A165.15,165.15,0,0,1,272.81,263.24Zm35.76,325.18c-84.75,0-154.72-64.41-163.6-146.84,22.54,27.53,63.27,77.05,68,81.22,6.52,5.7,13.06,14.61,41.67,14.9H362.61l.37,0c28.19-.38,34.68-9.22,41.16-14.89,4.76-4.17,45.49-53.69,68-81.22C463.3,524,393.33,588.42,308.57,588.42Z" transform="translate(-120.2 -235.47)"/><path class="cls-1" d="M240.4,377.18a5.26,5.26,0,0,0,5.51,5H371.24a5,5,0,1,0,0-9.92H245.91A5.26,5.26,0,0,0,240.4,377.18Z" transform="translate(-120.2 -235.47)"/><path class="cls-1" d="M489.25,275.73A23.06,23.06,0,0,1,450,259.15a22,22,0,0,1,7.21-16.84,22.64,22.64,0,0,1,15.9-6.27,23.17,23.17,0,0,1,16.18,39.69Zm-29.75-30a19.17,19.17,0,0,0,13.58,32.64,18.23,18.23,0,0,0,13.45-5.64,18.71,18.71,0,0,0,5.58-13.61,18.51,18.51,0,0,0-5.55-13.39,18.75,18.75,0,0,0-27.06,0ZM462.95,272V246.39l7.13,0q4.75,0,5.28,0a12.34,12.34,0,0,1,5,1.32,6.45,6.45,0,0,1,3.42,6.11q0,3.23-1.8,4.66a8.38,8.38,0,0,1-4.44,1.72,8.69,8.69,0,0,1,3.64,1.48q2.26,1.83,2.26,5.75v2.29a5.58,5.58,0,0,0,.05.75,3.66,3.66,0,0,0,.18.75l.24.72h-6.4a18.76,18.76,0,0,1-.42-3.54,11.81,11.81,0,0,0-.42-3.14,3.11,3.11,0,0,0-1.88-1.88,7.53,7.53,0,0,0-2.29-.41l-1.47-.09h-1.41V272Zm12.23-20.57a11.18,11.18,0,0,0-3.89-.53h-1.63v7.43h2.6a6.22,6.22,0,0,0,3.67-.94,3.48,3.48,0,0,0,1.32-3A2.93,2.93,0,0,0,475.17,251.44Z" transform="translate(-120.2 -235.47)"/></svg>